<svg width="1366" height="152" viewBox="0 0 1366 152" fill="none" xmlns="http://www.w3.org/2000/svg">
<path fill-rule="evenodd" clip-rule="evenodd" d="M1366 77.4685L1341 74.1619C1315 70.8554 1265 64.7146 1214 67.5488C1164 70.8554 1113 84.0817 1062 103.449C1012 122.816 961 148.324 911 151.63C860 154.937 809 135.57 759 112.896C708 90.2225 658 64.7146 607 58.1014C557 51.4882 506 64.7146 455 74.1619C405 84.0817 354 90.2225 304 96.8357C253 103.449 202 109.59 152 112.896C101 116.203 51 116.203 25 116.203H0V0H25C51 0 101 0 152 0C202 0 253 0 304 0C354 0 405 0 455 0C506 0 557 0 607 0C658 0 708 0 759 0C809 0 860 0 911 0C961 0 1012 0 1062 0C1113 0 1164 0 1214 0C1265 0 1315 0 1341 0H1366V77.4685Z" fill="#FF0000"/>
</svg>
